<svg id="Layer_1" data-name="Layer 1" xmlns="http://www.w3.org/2000/svg" viewBox="0 0 122.88 90.54"><defs><style>.cls-1{fill:#2b3344;}.cls-2{fill:#fe0000;fill-rule:evenodd;}.cls-3{fill:#fff;}</style></defs><title>new-mail</title><path class="cls-1" d="M0,87.24,34.51,52.18,0,23.67V87.24Zm3.64-66.9L51.81,59l17.92-15a32.74,32.74,0,0,1-5-23.6ZM38.83,55.79,3.7,90.54H97.87L64.34,55.8,53.45,65.47h0a2.46,2.46,0,0,1-3.17,0L38.83,55.79Zm29.75-3.68,33.29,35.41V58.28A32.82,32.82,0,0,1,73.1,48.21l-4.52,3.9Z"/><path class="cls-2" d="M97.09,0a25.8,25.8,0,1,1-25.8,25.79A25.79,25.79,0,0,1,97.09,0Z"/><path class="cls-3" d="M93.83,31.36V20.27a7.29,7.29,0,0,1-4.6,2.31V16.29c2.1-.2,4.86-1.48,6-3.35h6.08V31.36H105v5.7H90v-5.7Z"/></svg>